<?xml version="1.0" standalone="no"?>
<!DOCTYPE svg PUBLIC "-//W3C//DTD SVG 20010904//EN"
 "http://www.w3.org/TR/2001/REC-SVG-20010904/DTD/svg10.dtd">
<svg version="1.0" xmlns="http://www.w3.org/2000/svg"
 width="300.000000pt" height="300.000000pt" viewBox="0 0 300.000000 300.000000"
 preserveAspectRatio="xMidYMid meet">
<metadata>
Created by potrace 1.14, written by Peter Selinger 2001-2017
</metadata>
<g transform="translate(0.000000,300.000000) scale(0.100000,-0.100000)"
fill="#000000" stroke="none">
<path d="M1369 2936 c-2 -2 -24 -6 -49 -9 -471 -57 -897 -365 -1109 -802 -53
-108 -103 -256 -116 -340 -2 -11 -6 -40 -10 -65 -4 -25 -9 -56 -11 -70 -5 -28
-5 -272 1 -310 24 -182 61 -309 129 -455 74 -158 167 -288 296 -415 229 -225
522 -366 844 -405 62 -8 283 -8 316 -1 14 3 48 8 75 11 161 19 389 105 552
208 54 34 179 136 239 194 85 83 234 281 234 311 0 6 4 12 8 14 23 9 126 270
147 373 33 164 41 423 17 555 -37 200 -109 394 -193 518 -16 24 -29 45 -29 48
0 17 -107 143 -195 230 -109 107 -237 200 -369 266 -74 37 -253 102 -314 113
-15 3 -40 8 -57 11 -16 3 -41 8 -55 10 -33 6 -346 15 -351 10z"/>
</g>
</svg>
